M48
; DRILL file {KiCad (5.1.12)-1} date 08/11/22 01:09:11
; FORMAT={-:-/ absolute / metric / decimal}
; #@! TF.CreationDate,2022-08-11T01:09:11+09:00
; #@! TF.GenerationSoftware,Kicad,Pcbnew,(5.1.12)-1
FMAT,2
METRIC
T1C0.400
T2C0.500
T3C0.700
T4C0.800
T5C0.900
T6C1.000
T7C1.300
T8C3.200
%
G90
G05
T1
X2.0Y37.25
X27.5Y33.75
X27.75Y6.75
X31.75Y36.75
X43.0Y47.0
X43.25Y34.0
X45.0Y44.5
X47.25Y28.5
X47.75Y48.5
X51.0Y47.25
X52.5Y41.0
X52.75Y42.25
X53.25Y39.25
X53.75Y43.0
X54.25Y32.5
X54.75Y46.5
X54.75Y41.5
X54.75Y25.5
X55.25Y38.0
X56.25Y41.0
X56.75Y42.25
X57.25Y43.25
X58.25Y47.5
X59.75Y46.5
X61.0Y25.5
X61.25Y44.25
X62.0Y24.75
X63.0Y21.5
T2
X9.0Y41.5
X38.25Y35.8
X39.25Y51.5
X40.25Y34.5
X41.0Y51.5
X42.75Y53.75
X45.25Y51.5
X47.0Y51.5
X48.75Y53.75
X49.0Y35.25
X50.75Y36.25
X53.1Y48.25
X56.0Y57.25
X56.0Y52.0
X59.5Y45.0
X60.0Y50.0
X63.25Y57.25
X63.25Y50.75
X65.0Y63.25
X65.5Y44.25
X66.25Y63.25
X67.5Y63.25
T3
X2.75Y45.0
X4.75Y45.0
X14.25Y54.5
X15.5Y48.0
X16.75Y54.5
X17.5Y48.0
X29.65Y30.62
X29.65Y15.38
X32.19Y30.62
X32.19Y15.38
X33.25Y39.5
X34.73Y30.62
X34.73Y15.38
X35.25Y39.5
X37.27Y30.62
X37.27Y15.38
X39.81Y30.62
X39.81Y15.38
X42.35Y30.62
X42.35Y15.38
T4
X3.0Y29.0
X6.0Y29.0
X6.0Y21.0
X6.0Y11.0
X6.25Y47.25
X8.0Y62.0
X8.75Y56.0
X15.0Y50.75
X16.0Y61.0
X16.0Y57.0
X16.0Y21.0
X16.0Y11.0
X16.5Y44.25
X21.0Y59.0
X23.0Y62.0
X25.75Y47.75
X26.0Y31.0
X26.0Y21.0
X26.0Y11.0
X27.25Y40.5
X28.0Y59.0
X28.5Y47.25
X28.5Y43.75
X30.0Y61.0
X30.25Y49.25
X32.0Y44.0
X33.0Y61.0
X33.25Y49.25
X33.5Y36.25
X35.5Y50.75
X36.0Y21.0
X36.0Y11.0
X37.5Y40.0
X38.5Y38.0
X39.5Y48.0
X40.5Y61.0
X40.75Y43.25
X44.0Y61.0
X46.0Y46.75
X46.0Y21.0
X46.0Y11.0
X47.0Y61.0
X48.75Y33.25
X50.5Y61.0
X53.25Y28.25
X57.0Y21.0
X57.0Y11.0
X59.5Y29.5
X62.5Y35.0
X63.25Y38.5
X65.5Y41.0
X66.0Y32.0
X66.0Y21.0
X69.0Y51.5
T5
X55.46Y65.0
X58.0Y65.0
X60.54Y65.0
X69.0Y29.54
X69.0Y27.0
X69.0Y24.46
T6
X5.73Y6.0
X8.27Y6.0
X16.75Y8.25
X16.75Y3.75
X23.25Y8.25
X23.25Y3.75
X32.75Y8.25
X32.75Y3.75
X39.25Y8.25
X39.25Y3.75
X48.75Y8.25
X48.75Y3.75
X54.69Y54.0
X55.25Y8.25
X55.25Y3.75
X57.23Y54.0
X59.77Y54.0
X62.31Y54.0
X69.0Y48.81
X69.0Y46.27
X69.0Y43.73
X69.0Y41.19
T7
X11.46Y64.35
X16.54Y64.35
X25.46Y64.35
X30.54Y64.35
X42.96Y64.35
X48.04Y64.35
T8
X3.0Y57.0
X3.0Y15.5
X69.0Y57.0
X69.0Y15.5
T0
M30
