%TF.GenerationSoftware,KiCad,Pcbnew,(5.1.12)-1*%
%TF.CreationDate,2022-08-11T01:09:08+09:00*%
%TF.ProjectId,RailcomSwitchChanger,5261696c-636f-46d5-9377-697463684368,rev?*%
%TF.SameCoordinates,PX632ea00PY7459280*%
%TF.FileFunction,Paste,Top*%
%TF.FilePolarity,Positive*%
%FSLAX46Y46*%
G04 Gerber Fmt 4.6, Leading zero omitted, Abs format (unit mm)*
G04 Created by KiCad (PCBNEW (5.1.12)-1) date 2022-08-11 01:09:08*
%MOMM*%
%LPD*%
G01*
G04 APERTURE LIST*
%ADD10R,0.500000X0.550000*%
%ADD11R,0.550000X0.500000*%
%ADD12R,0.800000X1.300000*%
%ADD13R,0.700000X0.900000*%
%ADD14R,0.550000X1.600000*%
%ADD15R,1.600000X0.550000*%
%ADD16R,0.600000X1.550000*%
%ADD17R,2.200000X1.850000*%
%ADD18R,1.200000X0.850000*%
%ADD19R,0.850000X1.200000*%
%ADD20R,1.000000X0.800000*%
%ADD21R,0.800000X0.600000*%
%ADD22R,0.600000X0.800000*%
%ADD23R,2.500000X1.000000*%
%ADD24R,0.900000X0.700000*%
%ADD25C,0.100000*%
%ADD26R,3.000000X2.000000*%
%ADD27R,1.500000X1.000000*%
%ADD28R,1.400000X0.800000*%
G04 APERTURE END LIST*
D10*
%TO.C,C4*%
X13000000Y49225000D03*
X13000000Y48275000D03*
%TD*%
D11*
%TO.C,C11*%
X34275000Y43000000D03*
X35225000Y43000000D03*
%TD*%
D10*
%TO.C,C13*%
X61000000Y40975000D03*
X61000000Y40025000D03*
%TD*%
D11*
%TO.C,C15*%
X44775000Y57000000D03*
X45725000Y57000000D03*
%TD*%
D12*
%TO.C,Q11*%
X46345000Y49950000D03*
X47615000Y49950000D03*
X48885000Y49950000D03*
X50155000Y49950000D03*
X50155000Y55550000D03*
X48885000Y55550000D03*
X47615000Y55550000D03*
X46345000Y55550000D03*
%TD*%
D13*
%TO.C,R22*%
X44800000Y48250000D03*
X43200000Y48250000D03*
%TD*%
D14*
%TO.C,U11*%
X57800000Y44750000D03*
X57000000Y44750000D03*
X56200000Y44750000D03*
X55400000Y44750000D03*
X54600000Y44750000D03*
X53800000Y44750000D03*
X53000000Y44750000D03*
X52200000Y44750000D03*
D15*
X50750000Y43300000D03*
X50750000Y42500000D03*
X50750000Y41700000D03*
X50750000Y40900000D03*
X50750000Y40100000D03*
X50750000Y39300000D03*
X50750000Y38500000D03*
X50750000Y37700000D03*
D14*
X52200000Y36250000D03*
X53000000Y36250000D03*
X53800000Y36250000D03*
X54600000Y36250000D03*
X55400000Y36250000D03*
X56200000Y36250000D03*
X57000000Y36250000D03*
X57800000Y36250000D03*
D15*
X59250000Y37700000D03*
X59250000Y38500000D03*
X59250000Y39300000D03*
X59250000Y40100000D03*
X59250000Y40900000D03*
X59250000Y41700000D03*
X59250000Y42500000D03*
X59250000Y43300000D03*
%TD*%
D16*
%TO.C,U2*%
X14810000Y34300000D03*
X14810000Y39700000D03*
X13540000Y34300000D03*
X13540000Y39700000D03*
X12270000Y34300000D03*
X12270000Y39700000D03*
X11000000Y34300000D03*
X11000000Y39700000D03*
X9730000Y34300000D03*
X9730000Y39700000D03*
X8460000Y34300000D03*
X8460000Y39700000D03*
X7190000Y34300000D03*
X7190000Y39700000D03*
%TD*%
D17*
%TO.C,D1*%
X21000000Y51675000D03*
X21000000Y56325000D03*
%TD*%
%TO.C,D2*%
X25000000Y51675000D03*
X25000000Y56325000D03*
%TD*%
D18*
%TO.C,D3*%
X11000000Y53975000D03*
X11000000Y57025000D03*
%TD*%
%TO.C,D4*%
X4500000Y49225000D03*
X4500000Y52275000D03*
%TD*%
%TO.C,D5*%
X5250000Y38725000D03*
X5250000Y41775000D03*
%TD*%
%TO.C,D11*%
X35500000Y55525000D03*
X35500000Y52475000D03*
%TD*%
D19*
%TO.C,D12*%
X20475000Y47000000D03*
X23525000Y47000000D03*
%TD*%
D18*
%TO.C,D13*%
X37750000Y55525000D03*
X37750000Y52475000D03*
%TD*%
D19*
%TO.C,D14*%
X20475000Y44500000D03*
X23525000Y44500000D03*
%TD*%
D20*
%TO.C,D16*%
X60350000Y8250000D03*
X58650000Y8250000D03*
%TD*%
%TO.C,D17*%
X58650000Y5500000D03*
X60350000Y5500000D03*
%TD*%
%TO.C,D18*%
X58650000Y2750000D03*
X60350000Y2750000D03*
%TD*%
D21*
%TO.C,Q1*%
X20050000Y40650000D03*
X20050000Y39350000D03*
X21950000Y40000000D03*
%TD*%
D22*
%TO.C,Q2*%
X19000000Y34550000D03*
X18350000Y36450000D03*
X19650000Y36450000D03*
%TD*%
D12*
%TO.C,Q12*%
X40345000Y49950000D03*
X41615000Y49950000D03*
X42885000Y49950000D03*
X44155000Y49950000D03*
X44155000Y55550000D03*
X42885000Y55550000D03*
X41615000Y55550000D03*
X40345000Y55550000D03*
%TD*%
D22*
%TO.C,Q13*%
X50000000Y46550000D03*
X49350000Y48450000D03*
X50650000Y48450000D03*
%TD*%
%TO.C,Q14*%
X44650000Y45700000D03*
X43350000Y45700000D03*
X44000000Y43800000D03*
%TD*%
D23*
%TO.C,R1*%
X28750000Y56600000D03*
X28750000Y53400000D03*
%TD*%
%TO.C,R2*%
X32000000Y53400000D03*
X32000000Y56600000D03*
%TD*%
D24*
%TO.C,R3*%
X2500000Y51050000D03*
X2500000Y49450000D03*
%TD*%
%TO.C,R4*%
X2750000Y41050000D03*
X2750000Y39450000D03*
%TD*%
%TO.C,R5*%
X10750000Y44800000D03*
X10750000Y43200000D03*
%TD*%
%TO.C,R6*%
X9000000Y43200000D03*
X9000000Y44800000D03*
%TD*%
%TO.C,R7*%
X7250000Y44800000D03*
X7250000Y43200000D03*
%TD*%
D13*
%TO.C,R8*%
X3700000Y36250000D03*
X5300000Y36250000D03*
%TD*%
%TO.C,R9*%
X3700000Y34250000D03*
X5300000Y34250000D03*
%TD*%
D24*
%TO.C,R10*%
X8500000Y29950000D03*
X8500000Y31550000D03*
%TD*%
D13*
%TO.C,R11*%
X12450000Y43000000D03*
X14050000Y43000000D03*
%TD*%
%TO.C,R12*%
X12450000Y44500000D03*
X14050000Y44500000D03*
%TD*%
D24*
%TO.C,R15*%
X16500000Y36300000D03*
X16500000Y34700000D03*
%TD*%
D13*
%TO.C,R16*%
X17200000Y41000000D03*
X18800000Y41000000D03*
%TD*%
%TO.C,R17*%
X18800000Y38250000D03*
X17200000Y38250000D03*
%TD*%
D24*
%TO.C,R21*%
X52000000Y52050000D03*
X52000000Y50450000D03*
%TD*%
%TO.C,R23*%
X47750000Y47300000D03*
X47750000Y45700000D03*
%TD*%
%TO.C,R24*%
X41750000Y46700000D03*
X41750000Y48300000D03*
%TD*%
%TO.C,R25*%
X62500000Y41950000D03*
X62500000Y43550000D03*
%TD*%
%TO.C,R26*%
X64000000Y43550000D03*
X64000000Y41950000D03*
%TD*%
D13*
%TO.C,R27*%
X24450000Y33750000D03*
X26050000Y33750000D03*
%TD*%
%TO.C,R28*%
X52700000Y33750000D03*
X54300000Y33750000D03*
%TD*%
%TO.C,R31*%
X33800000Y33750000D03*
X32200000Y33750000D03*
%TD*%
D24*
%TO.C,R32*%
X41000000Y37300000D03*
X41000000Y35700000D03*
%TD*%
%TO.C,R33*%
X42500000Y37300000D03*
X42500000Y35700000D03*
%TD*%
%TO.C,R34*%
X44000000Y35700000D03*
X44000000Y37300000D03*
%TD*%
%TO.C,R35*%
X45500000Y37300000D03*
X45500000Y35700000D03*
%TD*%
D13*
%TO.C,R36*%
X37450000Y33750000D03*
X39050000Y33750000D03*
%TD*%
D24*
%TO.C,R37*%
X47000000Y35550000D03*
X47000000Y33950000D03*
%TD*%
%TO.C,R38*%
X59250000Y12300000D03*
X59250000Y10700000D03*
%TD*%
%TO.C,R39*%
X62000000Y10700000D03*
X62000000Y12300000D03*
%TD*%
%TO.C,R40*%
X64750000Y12300000D03*
X64750000Y10700000D03*
%TD*%
D25*
%TO.C,U1*%
G36*
X10100000Y49000000D02*
G01*
X9400000Y48500000D01*
X9400000Y50500000D01*
X10100000Y50000000D01*
X10100000Y49000000D01*
G37*
D26*
X7900000Y49500000D03*
D27*
X10850000Y51000000D03*
X10850000Y49500000D03*
X10850000Y48000000D03*
%TD*%
%TO.C,U12*%
X37350000Y45000000D03*
X37350000Y46500000D03*
X37350000Y48000000D03*
D26*
X34400000Y46500000D03*
D25*
G36*
X36600000Y46000000D02*
G01*
X35900000Y45500000D01*
X35900000Y47500000D01*
X36600000Y47000000D01*
X36600000Y46000000D01*
G37*
%TD*%
D28*
%TO.C,U13*%
X22350000Y38020000D03*
X22350000Y35480000D03*
X28650000Y35480000D03*
X28650000Y36750000D03*
X28650000Y38020000D03*
%TD*%
D24*
%TO.C,R41*%
X64250000Y47950000D03*
X64250000Y49550000D03*
%TD*%
D21*
%TO.C,Q15*%
X62200000Y48100000D03*
X62200000Y49400000D03*
X60300000Y48750000D03*
%TD*%
D24*
%TO.C,R18*%
X30500000Y38200000D03*
X30500000Y36600000D03*
%TD*%
%TO.C,R42*%
X63500000Y46550000D03*
X63500000Y44950000D03*
%TD*%
M02*
